<svg width="300" height="300" viewBox="0 0 300 300" fill="none" xmlns="http://www.w3.org/2000/svg">
  <path
    d="M25 300C38.8071 300 50 288.807 50 275C50 261.193 38.8071 250 25 250C11.1929 250 1.19738e-06 261.193 2.67443e-06 275C4.15148e-06 288.807 11.1929 300 25 300Z"
    fill="var(--color-primary)" />
  <path d="M18.1252 132C100.899 132 168 199.101 168 281.875C168 364.649 -64.6484 132 18.1252 132Z"
    fill="var(--color-secondary)" />
  <path
    d="M31.8595 1.68294e-05C179.949 7.5348e-06 300 120.051 300 268.141C300 416.23 -116.23 2.61241e-05 31.8595 1.68294e-05Z"
    fill="var(--color-primary)" />
  <style>
    :root {
    --color-primary: #6366F1;
    --color-secondary: #5EEAD4;
    }

    @media (prefers-color-scheme:dark){
    :root {
    --color-primary: #5EEAD4;
    --color-secondary: #6366F1;
    }
    }
  </style>
</svg>
